# xmcd
#
# Track frame offsets:
#  150
#  22299
#  63648
#  82873
#  122731
#  150308
#  169538
#  190428
#  221227
#  245380
#  268061
#
# Disc length: 3882 seconds
#
# Revision: 0
# Processed by: cddbd v1.5.1PL2 Copyright (c) Steve Scherf et al.
# Submitted via: Collectorz.com_Music_Collector 6.11
#
DISCID=990f280b
DTITLE=Ray Vaughn, Stevie - Slow Blues
DYEAR=1900
DGENRE=Blues
TTITLE0=Things That I Used To Do
TTITLE1=Tin Pan Alley
TTITLE2=Leave My Little Girl Alone
TTITLE3=Riviera Paradise
TTITLE4=Ain't Gonna Give Up On Love
TTITLE5=Life Without You
TTITLE6=The Sky Is Crying
TTITLE7=Little Wing
TTITLE8=Texas Flood
TTITLE9=Dirty Pool
TTITLE10=Lenny
EXTD=
EXTT0=
EXTT1=
EXTT2=
EXTT3=
EXTT4=
EXTT5=
EXTT6=
EXTT7=
EXTT8=
EXTT9=
EXTT10=
PLAYORDER=
